<?xml version="1.0" standalone="no"?>
<!DOCTYPE svg PUBLIC "-//W3C//DTD SVG 20010904//EN"
 "http://www.w3.org/TR/2001/REC-SVG-20010904/DTD/svg10.dtd">
<svg version="1.0" xmlns="http://www.w3.org/2000/svg"
 width="301.000000pt" height="301.000000pt" viewBox="0 0 301.000000 301.000000"
 preserveAspectRatio="xMidYMid meet">
<metadata>
Created by potrace 1.14, written by Peter Selinger 2001-2017
</metadata>
<g transform="translate(0.000000,301.000000) scale(0.100000,-0.100000)"
fill="#000000" stroke="none">
<path d="M1335 2999 c-22 -4 -58 -9 -80 -12 -60 -8 -243 -71 -316 -107 -380
-192 -644 -563 -697 -979 -12 -95 -6 -301 12 -393 32 -169 101 -339 189 -470
l46 -68 -73 -37 c-39 -21 -109 -56 -154 -78 -45 -22 -81 -45 -82 -52 0 -16 82
-116 165 -200 l71 -72 -34 -41 c-19 -22 -33 -42 -31 -44 185 -158 378 -271
584 -341 105 -36 254 -72 333 -81 26 -2 65 -7 87 -9 50 -6 247 -6 300 0 166
17 279 41 410 86 196 68 375 168 544 305 l60 48 -30 37 c-16 20 -29 41 -29 46
0 4 26 35 58 67 110 114 183 216 154 216 -12 0 -266 140 -282 156 -7 7 -2 22
18 50 95 132 182 357 208 539 17 123 9 305 -21 460 -11 56 -77 238 -108 294
-167 311 -438 538 -759 635 -46 14 -118 32 -162 40 -82 15 -312 18 -381 5z"/>
</g>
</svg>
